<?xml version="1.0" standalone="no"?>
<!DOCTYPE svg PUBLIC "-//W3C//DTD SVG 20010904//EN"
 "http://www.w3.org/TR/2001/REC-SVG-20010904/DTD/svg10.dtd">
<svg version="1.0" xmlns="http://www.w3.org/2000/svg"
 width="24.000000pt" height="24.000000pt" viewBox="0 0 24.000000 24.000000"
 preserveAspectRatio="xMidYMid meet">

<g transform="translate(0.000000,24.000000) scale(0.100000,-0.100000)"
fill="#000000" stroke="none">
<path d="M90 226 c-6 -8 -21 -16 -33 -18 -14 -2 -23 -11 -25 -25 -2 -12 -10
-27 -18 -33 -18 -16 -18 -44 0 -60 8 -6 16 -21 18 -33 2 -14 11 -23 25 -25 12
-2 27 -10 33 -18 16 -18 44 -18 60 0 6 8 21 16 33 18 14 2 23 11 25 25 2 12
10 27 18 33 18 16 18 44 0 60 -8 6 -16 21 -18 33 -2 14 -11 23 -25 25 -12 2
-27 10 -33 18 -7 8 -20 14 -30 14 -10 0 -23 -6 -30 -14z m80 -56 c43 -43 11
-120 -50 -120 -61 0 -93 77 -50 120 11 11 33 20 50 20 17 0 39 -9 50 -20z"/>
<path d="M108 149 c-10 -5 -18 -18 -18 -27 0 -10 -5 -23 -11 -29 -7 -7 -7 -13
-1 -17 5 -3 15 1 22 9 7 8 9 15 5 15 -4 0 3 9 16 21 l24 20 -25 -6 c-19 -5
-22 -4 -10 4 8 6 21 11 28 11 18 0 15 -37 -5 -50 -16 -10 -16 -10 2 -8 28 4
35 68 8 68 -10 0 -26 -5 -35 -11z"/>
</g>
</svg>
