<?xml version="1.0" standalone="no"?>
<!DOCTYPE svg PUBLIC "-//W3C//DTD SVG 20010904//EN"
 "http://www.w3.org/TR/2001/REC-SVG-20010904/DTD/svg10.dtd">
<svg version="1.0" xmlns="http://www.w3.org/2000/svg"
 width="512.000000pt" height="512.000000pt" viewBox="0 0 512.000000 512.000000"
 preserveAspectRatio="xMidYMid meet">

<g transform="translate(0.000000,512.000000) scale(0.100000,-0.100000)"
fill="#000000" stroke="none">
<path d="M4315 4943 c-147 -76 -541 -243 -575 -243 -7 0 -10 -116 -10 -359 0
-399 4 -428 70 -530 37 -59 142 -160 231 -223 66 -47 320 -205 345 -215 16 -6
102 43 286 163 171 111 286 222 336 323 l37 75 3 380 3 381 -83 29 c-86 30
-262 106 -452 195 -59 28 -115 51 -125 51 -9 -1 -38 -13 -66 -27z m173 -405
c8 -8 12 -52 12 -130 l0 -118 117 0 c151 0 153 -2 153 -118 0 -121 -2 -122
-152 -122 l-118 0 0 -118 c0 -78 -4 -122 -12 -130 -16 -16 -190 -16 -206 0 -8
8 -12 52 -12 130 l0 118 -111 0 c-61 0 -119 5 -130 10 -17 10 -19 22 -19 108
0 63 4 102 12 110 8 8 52 12 130 12 l118 0 0 118 c0 78 4 122 12 130 16 16
190 16 206 0z"/>
<path d="M2300 4559 c-398 -43 -776 -192 -1100 -432 -129 -96 -349 -318 -448
-451 -190 -257 -322 -549 -386 -852 -39 -187 -49 -306 -44 -530 2 -112 3 -204
1 -204 -1 0 -25 20 -53 45 -44 39 -57 45 -94 45 -37 0 -48 -5 -70 -31 -18 -21
-26 -42 -26 -68 0 -33 7 -45 58 -92 97 -92 286 -255 309 -268 36 -18 71 -13
102 16 39 37 251 400 251 430 0 36 -25 78 -55 91 -66 30 -105 8 -163 -93 l-47
-80 -7 50 c-12 93 -8 387 7 493 143 1004 990 1742 2001 1742 268 0 564 -63
805 -171 103 -46 146 -49 182 -14 34 34 40 67 22 110 -12 31 -27 42 -107 79
-166 78 -377 141 -574 172 -119 18 -446 26 -564 13z"/>
<path d="M3420 3887 c0 -107 -57 -225 -249 -517 -214 -324 -293 -493 -321
-689 -19 -130 1 -308 47 -419 l14 -35 45 44 c115 112 253 376 355 678 42 125
59 151 98 151 67 -1 76 -38 39 -175 -94 -351 -267 -653 -518 -905 -121 -122
-294 -265 -310 -255 -6 4 -23 32 -39 63 -16 31 -54 97 -85 145 -42 66 -58 103
-66 150 -52 295 -243 544 -525 683 -366 180 -771 137 -1083 -114 l-43 -34 81
-40 c88 -43 133 -84 460 -424 191 -199 320 -288 495 -344 75 -24 280 -39 349
-26 l37 7 -53 76 c-110 160 -272 306 -488 441 -106 66 -127 96 -95 132 30 33
69 25 169 -34 311 -183 551 -436 707 -747 l49 -99 0 -338 0 -339 -42 -6 c-71
-10 -190 -55 -217 -81 -37 -38 -35 -90 7 -127 18 -16 39 -29 47 -29 7 0 56 14
107 31 80 27 107 32 193 32 87 0 112 -4 193 -32 98 -34 120 -34 160 2 28 26
30 84 2 119 -20 27 -185 88 -234 88 l-26 0 0 324 0 325 95 71 c121 91 284 238
360 325 50 56 73 73 142 105 369 171 609 501 642 884 26 300 -70 579 -274 795
-59 62 -203 181 -219 181 -3 0 -6 -19 -6 -43z"/>
<path d="M4507 2978 c-14 -13 -75 -108 -136 -213 -122 -208 -129 -232 -86
-283 57 -68 123 -47 185 57 23 39 46 73 50 76 10 6 20 -126 20 -264 -1 -750
-426 -1442 -1097 -1784 -296 -151 -576 -218 -912 -219 -229 0 -443 33 -632 97
-98 34 -133 33 -170 -4 -39 -40 -40 -89 -1 -130 20 -23 54 -38 139 -65 369
-115 771 -130 1158 -45 227 50 525 178 720 307 561 375 919 969 986 1637 7 75
10 190 6 304 l-6 184 37 -35 c20 -19 48 -42 62 -52 85 -57 189 49 132 136 -14
22 -211 201 -320 291 -43 35 -100 37 -135 5z"/>
<path d="M707 1422 c-14 -15 -17 -49 -19 -203 l-3 -184 -186 -3 c-242 -3 -224
15 -224 -222 0 -237 -18 -219 224 -222 l186 -3 3 -184 c2 -154 5 -188 19 -203
14 -16 35 -18 200 -18 241 0 223 -18 223 225 l0 185 185 0 c243 0 225 -18 225
220 0 238 18 220 -225 220 l-185 0 0 185 c0 243 18 225 -223 225 -165 0 -186
-2 -200 -18z"/>
</g>
</svg>
