<?xml version="1.0" standalone="no"?>
<!DOCTYPE svg PUBLIC "-//W3C//DTD SVG 20010904//EN"
 "http://www.w3.org/TR/2001/REC-SVG-20010904/DTD/svg10.dtd">
<svg version="1.0" xmlns="http://www.w3.org/2000/svg"
 width="500.000000pt" height="500.000000pt" viewBox="0 0 500.000000 500.000000"
 preserveAspectRatio="xMidYMid meet">

<g transform="translate(0.000000,500.000000) scale(0.100000,-0.100000)"
fill="#000000" stroke="none">
<path d="M2380 4774 c-52 -19 -142 -52 -200 -73 -198 -75 -441 -162 -558 -202
-64 -22 -139 -48 -167 -59 -27 -11 -248 -90 -490 -175 -242 -86 -510 -181
-595 -212 -85 -30 -161 -62 -168 -71 -8 -11 -12 -65 -12 -187 0 -205 1 -207
105 -213 l64 -4 6 -42 c4 -22 5 -61 3 -86 l-3 -45 -72 -6 c-39 -3 -78 -11 -86
-17 -11 -9 -15 -53 -20 -188 -5 -173 0 -219 26 -236 7 -4 74 -8 150 -8 l137 0
0 -137 c0 -171 6 -186 75 -193 l50 -5 3 -713 2 -712 -40 0 c-30 0 -47 -7 -65
-25 -24 -23 -25 -29 -25 -164 l0 -139 -140 -4 c-118 -2 -142 -6 -157 -21 -16
-16 -18 -43 -18 -316 0 -280 1 -300 19 -320 l19 -21 2279 0 c2265 0 2278 0
2298 20 19 19 20 33 20 318 l0 299 -23 21 c-22 20 -33 22 -160 22 l-137 0 0
143 c0 168 -4 178 -76 186 l-49 6 0 710 0 710 47 3 c72 5 78 18 78 189 l0 143
140 0 c191 0 180 -14 180 224 l0 185 -26 20 c-21 16 -41 21 -90 21 l-64 0 0
89 0 89 71 4 c107 6 109 9 109 219 0 153 -2 170 -19 186 -11 10 -82 40 -158
67 -218 76 -709 251 -933 331 -113 41 -308 110 -435 155 -126 45 -348 124
-491 176 -144 52 -272 94 -285 93 -13 0 -67 -16 -119 -35z m246 -130 c55 -19
117 -41 139 -48 22 -8 198 -70 390 -140 316 -114 592 -214 1300 -468 l230 -83
3 -98 3 -97 -2188 2 -2188 3 0 95 0 95 105 37 c97 35 352 126 1170 419 173 62
441 159 595 215 154 56 294 103 311 103 18 1 76 -15 130 -35z m1862 -1063 c21
-1 22 -5 22 -91 l0 -90 -92 -2 c-51 -1 -147 -1 -213 0 -66 1 -929 2 -1917 2
l-1798 0 0 90 0 90 213 2 c180 3 3720 1 3785 -1z m202 -406 l0 -95 -2190 0
-2190 0 0 95 0 95 2190 0 2190 0 0 -95z m-3370 -330 l0 -105 -339 0 c-300 0
-340 2 -345 16 -8 21 -8 179 1 187 3 4 159 7 345 7 l338 0 0 -105z m2230 -38
c0 -171 6 -184 78 -189 l47 -3 3 -712 2 -713 -40 0 c-30 0 -47 -7 -65 -25 -24
-23 -25 -29 -25 -164 l0 -139 -72 -4 c-127 -8 -2004 -2 -2016 6 -8 5 -12 52
-12 151 0 137 -1 145 -22 159 -12 9 -39 16 -60 16 -31 0 -39 4 -43 23 -3 12
-4 333 -3 712 l3 690 45 3 c76 6 80 14 80 177 0 78 3 145 7 148 3 4 476 7
1050 7 l1043 0 0 -143z m818 41 l-3 -103 -340 0 -340 0 -3 103 -3 102 346 0
346 0 -3 -102z m-3173 -270 c3 -24 5 -344 3 -713 l-3 -670 -217 -3 -218 -2 0
708 c0 390 3 712 7 715 3 4 100 7 214 7 l208 0 6 -42z m3043 -675 l2 -713
-215 0 -215 0 0 708 c0 390 3 712 7 716 4 3 99 5 212 4 l206 -3 3 -712z
m-2918 -943 l0 -100 -342 2 -343 3 -3 84 c-2 46 -1 90 2 98 4 10 71 13 346 13
l340 0 0 -100z m3048 -2 l3 -98 -346 0 -345 0 0 100 0 100 343 -2 342 -3 3
-97z m320 -441 l2 -207 -2187 2 -2188 3 -3 195 c-1 107 0 200 2 207 4 11 421
13 2188 11 l2183 -3 3 -208z"/>
<path d="M2920 2820 c-54 -7 -82 -17 -185 -67 -64 -30 -79 -40 -140 -88 -68
-54 -148 -139 -192 -205 -20 -30 -44 -66 -53 -80 -9 -14 -20 -37 -24 -52 -8
-35 -17 -35 -69 1 -23 16 -73 38 -111 50 -270 83 -526 -86 -606 -400 -30 -118
-28 -314 5 -437 46 -173 119 -300 240 -417 185 -181 463 -204 653 -55 30 25
92 103 125 162 29 51 67 160 67 195 0 45 10 53 64 53 73 1 201 32 277 68 67
32 199 127 199 143 0 5 7 9 15 9 8 0 15 3 15 8 0 4 23 31 50 60 28 29 50 54
50 56 0 2 25 43 55 91 30 49 55 92 55 98 0 5 7 23 15 40 51 113 70 312 39 431
-64 249 -265 373 -544 336z m204 -56 c26 -10 19 -27 -46 -99 -107 -121 -172
-236 -214 -382 -13 -46 -24 -96 -24 -111 0 -15 -9 -47 -20 -71 -11 -24 -20
-49 -20 -56 0 -31 -124 -244 -152 -261 -14 -9 -17 -3 -38 70 -37 129 -115 267
-205 364 -25 26 -45 50 -45 54 0 4 14 30 30 58 17 28 30 53 30 55 0 27 212
255 237 255 7 0 13 4 13 8 0 8 39 32 125 75 22 12 65 26 95 33 58 13 208 18
234 8z m139 -62 c15 -16 11 -22 -49 -82 -67 -66 -161 -198 -184 -260 -7 -19
-17 -39 -21 -45 -3 -5 -23 -77 -44 -160 -55 -225 -140 -381 -278 -513 l-34
-33 -6 37 c-7 41 8 77 43 109 74 67 210 345 210 431 0 67 70 234 149 354 43
66 158 180 181 180 9 0 24 -8 33 -18z m112 -147 c39 -78 40 -82 43 -206 4
-113 1 -134 -21 -205 -65 -205 -182 -365 -357 -490 -95 -67 -201 -110 -301
-121 -79 -8 -84 8 -23 67 180 174 261 325 314 585 7 33 18 74 25 90 26 60 79
170 84 175 4 3 19 23 35 45 49 66 130 146 146 143 8 -2 33 -39 55 -83z m-1382
-345 c6 -171 55 -305 174 -478 35 -51 72 -115 83 -142 11 -27 24 -57 29 -67 5
-10 19 -52 30 -93 17 -60 21 -103 21 -215 0 -77 -4 -145 -8 -151 -11 -17 -62
-27 -63 -12 0 7 -2 72 -3 143 -2 129 -25 274 -51 325 -7 14 -23 47 -35 73 -12
26 -50 90 -83 140 -57 86 -91 147 -122 222 -27 65 -55 214 -55 292 l0 82 33 3
c17 2 35 1 39 -2 3 -3 8 -57 11 -120z m208 87 c110 -53 227 -181 299 -326 114
-230 124 -486 25 -685 -35 -70 -106 -166 -125 -166 -4 0 -10 57 -13 128 -9
198 -54 333 -175 520 -64 100 -122 209 -122 231 0 9 -9 39 -19 66 -11 30 -22
93 -26 159 l-8 109 54 -5 c30 -3 79 -17 110 -31z m-348 -88 c4 -50 18 -133 32
-185 23 -88 89 -239 119 -274 64 -74 145 -230 171 -329 19 -73 31 -284 21
-354 l-7 -47 -43 0 c-230 0 -473 241 -548 545 -30 118 -29 312 2 420 12 44 26
85 31 91 5 6 21 33 35 60 14 27 32 53 40 57 8 4 14 15 14 22 0 8 7 15 15 15 8
0 15 4 15 10 0 11 70 60 86 60 7 0 13 -34 17 -91z"/>
<path d="M2643 2510 c-40 -36 -43 -60 -9 -60 35 0 79 43 71 69 -9 28 -24 26
-62 -9z"/>
<path d="M2505 2359 c-50 -68 -60 -112 -23 -107 15 2 35 22 55 53 17 28 39 58
49 67 20 21 12 48 -16 48 -13 0 -36 -21 -65 -61z"/>
<path d="M1795 1339 c-11 -16 43 -89 65 -89 28 0 26 42 -4 74 -24 27 -50 33
-61 15z"/>
<path d="M1910 1211 c0 -21 128 -121 154 -121 20 0 30 38 16 55 -7 8 -17 15
-22 15 -5 0 -32 16 -61 35 -58 39 -87 45 -87 16z"/>
</g>
</svg>
